<svg xmlns="http://www.w3.org/2000/svg" version="1.1" xmlns:xlink="http://www.w3.org/1999/xlink" xmlns:svgjs="http://svgjs.com/svgjs" id="BgenPttrnSvgRootPreview" width="100%" height="100%"><defs><pattern x="0" y="0" width="1" height="1" patternUnits="userSpaceOnUse" id="BgenPttrnLayer1"><g id="PatternRootContent1"><g id="BgenPttrnLayer1background"><rect width="1" height="1" id="BgenPttrnBackground1" class="color_1 fill_color_1" fill="#000000"></rect></g></g></pattern><pattern x="0" y="0" width="23" height="30" patternUnits="userSpaceOnUse" id="BgenPttrnLayer2" patternTransform="matrix(1.4,0,0,1.4,0,0)"><g id="PatternRootContent2"><g id="BgenPttrnLayer2Element1"><use xlink:href="#BgenPttrnElement1" x="11" y="-19.5" transform="translate(21.015000343322754, -9.484999656677246) scale(1) translate(-21.015000343322754, 9.484999656677246) rotate(90, 23, -7.5)"></use><use xlink:href="#BgenPttrnElement1" x="-12" y="-19.5" transform="translate(-1.984999656677246, -9.484999656677246) scale(1) translate(1.984999656677246, 9.484999656677246) rotate(90, 0, -7.5)"></use><use xlink:href="#BgenPttrnElement1" x="-0.5" y="-4.5" transform="translate(9.515000343322754, 5.515000343322754) scale(1) translate(-9.515000343322754, -5.515000343322754) rotate(90, 11.5, 7.5)"></use><use xlink:href="#BgenPttrnElement1" x="-23.5" y="-4.5" transform="translate(-13.484999656677246, 5.515000343322754) scale(1) translate(13.484999656677246, -5.515000343322754) rotate(90, -11.5, 7.5)"></use><use xlink:href="#BgenPttrnElement1" x="22.5" y="-4.5" transform="translate(32.515000343322754, 5.515000343322754) scale(1) translate(-32.515000343322754, -5.515000343322754) rotate(90, 34.5, 7.5)"></use><use xlink:href="#BgenPttrnElement1" x="11" y="10.5" transform="translate(21.015000343322754, 20.515000343322754) scale(1) translate(-21.015000343322754, -20.515000343322754) rotate(90, 23, 22.5)"></use><use xlink:href="#BgenPttrnElement1" x="-12" y="10.5" transform="translate(-1.984999656677246, 20.515000343322754) scale(1) translate(1.984999656677246, -20.515000343322754) rotate(90, 0, 22.5)"></use><use xlink:href="#BgenPttrnElement1" x="-0.5" y="25.5" transform="translate(9.515000343322754, 35.515000343322754) scale(1) translate(-9.515000343322754, -35.515000343322754) rotate(90, 11.5, 37.5)"></use><use xlink:href="#BgenPttrnElement1" x="-0.5" y="25.5" transform="translate(9.515000343322754, 35.515000343322754) scale(1) translate(-9.515000343322754, -35.515000343322754) rotate(90, 11.5, 37.5)"></use></g></g></pattern><symbol id="BgenPttrnElement1"><path d="M7,3V5H17V3H7M9,7V9H15V7H9M2,7.96V16.04L6.03,12L2,7.96M22.03,7.96L18,12L22.03,16.04V7.96M7,11V13H17V11H7M9,15V17H15V15H9M7,19V21H17V19H7Z" class="color_2 fill_color_2" fill="#0f0600"></path></symbol></defs><rect width="100%" height="100%" id="BgenPttrnRctLayer1" fill="url(#BgenPttrnLayer1)"></rect><rect width="100%" height="100%" id="BgenPttrnRctLayer2" fill="url(#BgenPttrnLayer2)"></rect></svg>