<svg xmlns="http://www.w3.org/2000/svg" version="1.1" xmlns:xlink="http://www.w3.org/1999/xlink" xmlns:svgjs="http://svgjs.com/svgjs" id="BgenPttrnSvgRootPreview" width="100%" height="100%"><defs><pattern x="0" y="0" width="1" height="1" patternUnits="userSpaceOnUse" id="BgenPttrnLayer1"><g id="PatternRootContent1"><g id="BgenPttrnLayer1background"><rect width="1" height="1" id="BgenPttrnBackground1" class="color_1 fill_color_1" fill="#000000"></rect></g></g></pattern><pattern x="0" y="0" width="83" height="142" patternUnits="userSpaceOnUse" id="BgenPttrnLayer2" patternTransform="matrix(1,0,0,1,0,0)"><g id="PatternRootContent2"><g id="BgenPttrnLayer2Element3"><use xlink:href="#BgenPttrnElement3" x="37.16542053222656" y="-77.71940612792969" transform="translate(83, -35.5) scale(1) translate(-83, 35.5) rotate(90, 83, -35.5)"></use><use xlink:href="#BgenPttrnElement3" x="-45.83457946777344" y="-77.71940612792969" transform="translate(0, -35.5) scale(1) translate(0, 35.5) rotate(90, 0, -35.5)"></use><use xlink:href="#BgenPttrnElement3" x="-4.3345794677734375" y="-6.7194061279296875" transform="translate(41.5, 35.5) scale(1) translate(-41.5, -35.5) rotate(90, 41.5, 35.5)"></use><use xlink:href="#BgenPttrnElement3" x="-87.33457946777344" y="-6.7194061279296875" transform="translate(-41.5, 35.5) scale(1) translate(41.5, -35.5) rotate(90, -41.5, 35.5)"></use><use xlink:href="#BgenPttrnElement3" x="78.66542053222656" y="-6.7194061279296875" transform="translate(124.5, 35.5) scale(1) translate(-124.5, -35.5) rotate(90, 124.5, 35.5)"></use><use xlink:href="#BgenPttrnElement3" x="37.16542053222656" y="64.28059387207031" transform="translate(83, 106.5) scale(1) translate(-83, -106.5) rotate(90, 83, 106.5)"></use><use xlink:href="#BgenPttrnElement3" x="-45.83457946777344" y="64.28059387207031" transform="translate(0, 106.5) scale(1) translate(0, -106.5) rotate(90, 0, 106.5)"></use><use xlink:href="#BgenPttrnElement3" x="-4.3345794677734375" y="135.2805938720703" transform="translate(41.5, 177.5) scale(1) translate(-41.5, -177.5) rotate(90, 41.5, 177.5)"></use><use xlink:href="#BgenPttrnElement3" x="-4.3345794677734375" y="135.2805938720703" transform="translate(41.5, 177.5) scale(1) translate(-41.5, -177.5) rotate(90, 41.5, 177.5)"></use></g></g></pattern><symbol id="BgenPttrnElement3"><g class="color_4 fill_color_4" fill="#171717"><path d="M51.618,20.51552963256836C48.79,17.688,38.608,27.87,41.436,30.69786834716797C44.264,33.527,49.709,35.153,52.891,31.970661163330078C56.073,28.789,54.447,23.344,51.618,20.51552963256836M42.921,29.354366302490234C42.921,28.789,43.699,27.021,45.82,24.899593353271484C47.941,22.779,49.709,22.001,50.275,22.00045394897461C52.255,24.122,53.81,28.223,51.477,30.556446075439453C49.143,32.89,44.972,31.264,42.921,29.354366302490234M44.052,21.01050567626953C43.699,21.364,43.274,21.647,42.921,22.00045394897461C42.779,22.142,42.638,22.284,42.497,22.42471694946289L37.618,19.52558135986328L38.608,17.82852554321289L44.052,21.01050567626953M42.285,14.292990684509277L48.861,18.18207550048828C48.507,18.253,48.083,18.395,47.659,18.677051544189453C47.376,18.819,47.022,19.031,46.669,19.24273681640625L41.295,15.990046501159668L42.285,14.292990684509277M40.658,24.687461853027344C40.234,25.254,39.88,25.89,39.668,26.384517669677734L34.082,23.061115264892578L35.072,21.364059448242188L40.658,24.687461853027344Z" transform="matrix(1,0,0,1,0,0)"></path><path d="M38.049,17.047359466552734C41.912,16.013,38.185,2.103,34.322,3.1380279064178467C30.458,4.174,26.327,8.076,27.492,12.422065734863281C28.657,16.769,34.185,18.083,38.049,17.047359466552734M34.743,5.095761299133301C35.233,5.379,36.375,6.937,37.151,9.83387565612793C37.928,12.732,37.717,14.652,37.434,15.141390800476074C34.607,15.796,30.278,15.092,29.424,11.904428482055664C28.57,8.717,32.064,5.917,34.743,5.095761299133301M41.403,10.247488021850586C41.274,9.765,41.241,9.256,41.111,8.772717475891113C41.06,8.58,41.008,8.387,40.956,8.193161964416504L45.906,5.417361259460449L46.881,7.1232099533081055L41.403,10.247488021850586M48.104,12.075313568115234L41.448,15.825835227966309C41.564,15.485,41.654,15.047,41.621,14.537314414978027C41.64,14.222,41.633,13.81,41.626,13.397150039672852L47.13,10.369464874267578L48.104,12.075313568115234M39.916,5.469622611999512C39.638,4.82,39.264,4.195,38.941,3.7637741565704346L44.612,0.5877320766448975L45.587,2.293581247329712L39.916,5.469622611999512Z" transform="matrix(1,0,0,1,0,0)"></path><path d="M47.837,7.029816627502441C46.802,10.894,60.711,14.621,61.746,10.756811141967773C62.782,6.894,61.468,1.365,57.121,0.1999814510345459C52.774,-0.964,48.872,3.167,47.837,7.029816627502441M59.84,10.142580032348633C59.35,10.426,57.431,10.636,54.533,9.85923957824707C51.635,9.083,50.078,7.941,49.795,7.450861930847168C50.642,4.676,53.416,1.278,56.603,2.13183331489563C59.791,2.986,60.468,7.413,59.84,10.142580032348633M52.049,13.334714889526367C52.532,13.465,52.989,13.691,53.472,13.819533348083496C53.665,13.872,53.858,13.923,54.051,13.974825859069824L53.98,19.649765014648438L52.015,19.640972137451172L52.049,13.334714889526367M47.115,18.224403381347656L47.195,10.584794998168945C47.433,10.856,47.768,11.153,48.225,11.378341674804688C48.489,11.553,48.849,11.753,49.21,11.95281982421875L49.08,18.233196258544922L47.115,18.224403381347656M56.93,14.435626029968262C57.632,14.521,58.36,14.509,58.895,14.444418907165527L58.81,20.943862915039062L56.845,20.935070037841797L56.93,14.435626029968262Z" transform="matrix(1,0,0,1,0,0)"></path><path d="M67.522,36.37595748901367C68.557,32.513,54.648,28.786,53.613,32.64925765991211C52.577,36.513,53.891,42.041,58.238,43.20597457885742C62.585,44.371,66.487,40.24,67.522,36.37595748901367M55.519,33.263553619384766C56.009,32.981,57.929,32.771,60.827,33.546775817871094C63.724,34.323,65.281,35.465,65.565,35.95534896850586C64.717,38.731,61.943,42.128,58.756,41.27430725097656C55.568,40.42,54.891,35.995,55.519,33.263553619384766M63.311,30.07109832763672C62.828,29.942,62.37,29.716,61.888,29.586597442626953C61.694,29.534,61.501,29.483,61.308,29.431533813476562L61.38,23.756628036499023L63.344,23.765464782714844L63.311,30.07109832763672M68.245,25.18207359313965L68.165,32.821598052978516C67.926,32.551,67.591,32.254,67.135,32.02812576293945C66.871,31.854,66.51,31.653,66.15,31.453603744506836L66.28,25.173236846923828L68.245,25.18207359313965M58.429,28.970285415649414C57.727,28.886,56.999,28.898,56.465,28.961448669433594L56.55,22.462129592895508L58.514,22.470966339111328L58.429,28.970285415649414Z" transform="matrix(1,0,0,1,0,0)"></path><path d="M63.741,22.89077377319336C66.569,25.719,76.752,15.536,73.924,12.708431243896484C71.094,9.88,65.65,8.254,62.468,11.43549633026123C59.286,14.618,60.912,20.062,63.741,22.89077377319336M72.439,14.051895141601562C72.438,14.618,71.66,16.386,69.539,18.5063419342041C67.418,20.628,65.65,21.406,65.084,21.40518569946289C63.104,19.284,61.549,15.183,63.883,12.849839210510254C66.216,10.517,70.388,12.142,72.439,14.051895141601562M71.307,22.395488739013672C71.661,22.043,72.085,21.759,72.438,21.405223846435547C72.58,21.265,72.721,21.123,72.863,20.981212615966797L77.742,23.880138397216797L76.752,25.577436447143555L71.307,22.395488739013672M73.075,29.112638473510742L66.499,25.2236328125C66.852,25.154,67.276,25.013,67.701,24.72919464111328C67.984,24.588,68.337,24.376,68.691,24.163442611694336L74.065,27.41620445251465L73.075,29.112638473510742M74.701,18.71877670288086C75.125,18.153,75.479,17.517,75.691,17.02147674560547L81.277,20.34468650817871L80.287,22.04198455810547L74.701,18.71877670288086Z" transform="matrix(1,0,0,1,0,0)"></path><path d="M77.311,26.358659744262695C73.447,27.394,77.174,41.304,81.038,40.267704010009766C84.901,39.234,89.032,35.331,87.868,30.983922958374023C86.702,26.637,81.174,25.324,77.311,26.358659744262695M80.617,38.30994415283203C80.126,38.027,78.985,36.47,78.208,33.57228088378906C77.432,30.674,77.642,28.755,77.925,28.264860153198242C80.752,27.611,85.081,28.314,85.936,31.501249313354492C86.79,34.689,83.294,37.489,80.617,38.30994415283203M73.957,33.158809661865234C74.085,33.642,74.118,34.151,74.248,34.63357162475586C74.299,34.827,74.352,35.02,74.403,35.212646484375L69.453,37.98862838745117L68.478,36.28248977661133L73.957,33.158809661865234M67.255,31.3306827545166L73.911,27.580162048339844C73.795,27.922,73.705,28.361,73.739,28.868940353393555C73.72,29.185,73.726,29.597,73.734,30.00921630859375L68.23,33.03681945800781L67.255,31.3306827545166M75.444,37.936336517333984C75.721,38.587,76.095,39.211,76.419,39.64247131347656L70.747,42.818580627441406L69.772,41.11244201660156L75.444,37.936336517333984Z" transform="matrix(1,0,0,1,0,0)"></path><path d="M61.739,58.079811096191406C65.602,57.044,61.875,43.136,58.012,44.17076873779297C54.148,45.205,50.017,49.108,51.182,53.45469284057617C52.346,57.801,57.875,59.116,61.739,58.079811096191406M58.433,46.12856674194336C58.922,46.411,60.065,47.969,60.841,50.86656188964844C61.617,53.764,61.407,55.684,61.125,56.17427444458008C58.297,56.828,53.968,56.124,53.114,52.93724060058594C52.26,49.749,55.754,46.95,58.433,46.12856674194336M65.093,51.279972076416016C64.964,50.798,64.931,50.288,64.802,49.80552291870117C64.75,49.612,64.697,49.419,64.646,49.2261962890625L69.596,46.4504280090332L70.571,48.15631866455078L65.093,51.279972076416016M71.794,53.108463287353516L65.138,56.85890579223633C65.254,56.517,65.343,56.079,65.311,55.57045364379883C65.329,55.254,65.323,54.842,65.316,54.43024444580078L70.82,51.40256881713867L71.794,53.108463287353516M63.606,46.50220489501953C63.327,45.852,62.954,45.227,62.631,44.79631042480469L68.302,41.62039566040039L69.277,43.32628631591797L63.606,46.50220489501953Z" transform="matrix(1,0,0,1,0,0)"></path><path d="M71.527,48.06279373168945C70.491,51.925,84.401,55.653,85.436,51.7897834777832C86.471,47.925,85.157,42.397,80.811,41.232810974121094C76.464,40.068,72.562,44.199,71.527,48.06279373168945M83.53,51.175514221191406C83.04,51.458,81.12,51.668,78.223,50.891845703125C75.325,50.116,73.767,48.973,73.485,48.48317337036133C74.332,45.708,77.106,42.311,80.293,43.164791107177734C83.481,44.019,84.159,48.445,83.53,51.175514221191406M75.739,54.36737823486328C76.221,54.497,76.679,54.723,77.162,54.85188674926758C77.354,54.904,77.548,54.956,77.741,55.00743103027344L77.67,60.68215560913086L75.706,60.673606872558594L75.739,54.36737823486328M70.805,59.2567024230957L70.885,51.6171760559082C71.123,51.888,71.457,52.185,71.915,52.411258697509766C72.178,52.585,72.539,52.785,72.9,52.98567199707031L72.77,59.266117095947266L70.805,59.2567024230957M80.62,55.46853256225586C81.322,55.553,82.05,55.541,82.585,55.477081298828125L82.5,61.97633361816406L80.535,61.9677848815918L80.62,55.46853256225586Z" transform="matrix(1,0,0,1,0,0)"></path><path d="M75.308,61.548221588134766C72.479,58.72,62.297,68.902,65.126,71.73027038574219C67.954,74.559,73.399,76.185,76.581,73.0033187866211C79.763,69.821,78.136,64.376,75.308,61.548221588134766M66.611,70.3867416381836C66.611,69.821,67.388,68.054,69.51,65.93241882324219C71.631,63.811,73.399,63.033,73.965,63.03337860107422C75.944,65.154,77.5,69.256,75.167,71.58879089355469C72.833,73.923,68.661,72.295,66.611,70.3867416381836M67.742,62.04347229003906C67.388,62.397,66.964,62.679,66.611,63.033416748046875C66.469,63.174,66.328,63.316,66.187,63.45720291137695L61.308,60.55824279785156L62.298,58.86090087890625L67.742,62.04347229003906M65.975,55.325660705566406L72.551,59.214744567871094C72.197,59.285,71.772,59.427,71.349,59.70998001098633C71.065,59.851,70.712,60.063,70.359,60.27577590942383L64.985,57.02300262451172L65.975,55.325660705566406M64.348,65.72008514404297C63.923,66.285,63.57,66.922,63.358,67.41742706298828L57.772,64.0940933227539L58.762,62.39675521850586L64.348,65.72008514404297Z" transform="matrix(1,0,0,1,0,0)"></path><path d="M40.051,63.9232292175293C42.879,66.751,53.061,56.569,50.233,53.74089050292969C47.405,50.912,41.96,49.286,38.778,52.46809768676758C35.596,55.65,37.222,61.095,40.051,63.9232292175293M48.748,55.08439254760742C48.748,55.65,47.97,57.418,45.849,59.53916549682617C43.728,61.66,41.96,62.438,41.394,62.43830490112305C39.414,60.317,37.859,56.216,40.192,53.8823127746582C42.526,51.549,46.697,53.175,48.748,55.08439254760742M47.617,63.428253173828125C47.97,63.075,48.395,62.792,48.748,62.43830490112305C48.89,62.297,49.031,62.155,49.172,62.014041900634766L54.051,64.91317749023438L53.061,66.6102294921875L47.617,63.428253173828125M49.384,70.14576721191406L42.808,66.25668334960938C43.162,66.186,43.586,66.044,44.01,65.76170349121094C44.293,65.62,44.647,65.408,45,65.19601440429688L50.374,68.4487075805664L49.384,70.14576721191406M51.011,59.75129699707031C51.435,59.185,51.789,58.549,52.001,58.05424118041992L57.587,61.37764358520508L56.597,63.07469940185547L51.011,59.75129699707031Z" transform="matrix(1,0,0,1,0,0)"></path><path d="M53.62,67.39139556884766C49.757,68.426,53.484,82.336,57.347,81.30072784423828C61.211,80.265,65.342,76.363,64.177,72.01668548583984C63.012,67.67,57.484,66.356,53.62,67.39139556884766M56.926,79.3429946899414C56.436,79.06,55.294,77.502,54.518,74.6048812866211C53.741,71.707,53.952,69.787,54.235,69.29736328125C57.062,68.643,61.391,69.347,62.245,72.5343246459961C63.099,75.722,59.605,78.522,56.926,79.3429946899414M50.266,74.19126892089844C50.395,74.674,50.428,75.183,50.558,75.6660385131836C50.609,75.859,50.661,76.052,50.713,76.24559020996094L45.763,79.02139282226562L44.788,77.31554412841797L50.266,74.19126892089844M43.565,72.36344146728516L50.221,68.6129150390625C50.105,68.954,50.015,69.392,50.048,69.90144348144531C50.029,70.217,50.036,70.629,50.043,71.0416030883789L44.539,74.06929016113281L43.565,72.36344146728516M51.753,78.96913146972656C52.031,79.619,52.405,80.244,52.728,80.67498016357422L47.057,83.85102081298828L46.082,82.14517211914062L51.753,78.96913146972656Z" transform="matrix(1,0,0,1,0,0)"></path><path d="M43.832,77.408935546875C44.867,73.545,30.958,69.818,29.923,73.68194580078125C28.887,77.545,30.201,83.074,34.548,84.23876953125C38.895,85.403,42.797,81.272,43.832,77.408935546875M31.829,74.29617309570312C32.319,74.013,34.238,73.803,37.136,74.57951354980469C40.034,75.356,41.591,76.498,41.874,76.9878921508789C41.027,79.763,38.253,83.161,35.066,82.30692291259766C31.878,81.453,31.201,77.026,31.829,74.29617309570312M39.62,71.10404205322266C39.137,70.974,38.68,70.748,38.197,70.61921691894531C38.004,70.567,37.811,70.516,37.618,70.46392822265625L37.689,64.78898620605469L39.654,64.79778289794922L39.62,71.10404205322266M44.554,66.21435546875L44.474,73.85395812988281C44.236,73.583,43.901,73.286,43.444,73.06040954589844C43.18,72.886,42.82,72.686,42.459,72.48593139648438L42.589,66.20555877685547L44.554,66.21435546875M34.739,70.00312805175781C34.037,69.918,33.309,69.93,32.774,69.99433898925781L32.859,63.494895935058594L34.824,63.50368881225586L34.739,70.00312805175781Z" transform="matrix(1,0,0,1,0,0)"></path><path d="M24.147,48.06279754638672C23.112,51.926,37.021,55.653,38.056,51.78950119018555C39.092,47.926,37.778,42.397,33.431,41.232784271240234C29.084,40.068,25.182,44.199,24.147,48.06279754638672M36.15,51.17520523071289C35.66,51.458,33.74,51.668,30.843,50.89198303222656C27.946,50.115,26.388,48.973,26.104,48.4834098815918C26.952,45.708,29.726,42.311,32.913,43.164451599121094C36.101,44.019,36.778,48.444,36.15,51.17520523071289M28.358,54.36766052246094C28.841,54.497,29.299,54.723,29.781,54.8521614074707C29.975,54.904,30.168,54.955,30.361,55.007225036621094L30.29,60.68212890625L28.325,60.67329406738281L28.358,54.36766052246094M23.424,59.256683349609375L23.505,51.617156982421875C23.743,51.888,24.078,52.184,24.534,52.4106330871582C24.799,52.585,25.159,52.785,25.519,52.98515701293945L25.389,59.26552200317383L23.424,59.256683349609375M33.24,55.46847152709961C33.943,55.552,34.67,55.541,35.205,55.47731018066406L35.119,61.976627349853516L33.155,61.96779251098633L33.24,55.46847152709961Z" transform="matrix(1,0,0,1,0,0)"></path><path d="M27.928,61.5479850769043C25.101,58.72,14.918,68.902,17.745,71.7303237915039C20.575,74.559,26.019,76.185,29.201,73.00325775146484C32.383,69.821,30.757,64.376,27.928,61.5479850769043M19.23,70.38685607910156C19.231,69.821,20.009,68.053,22.13,65.93241119384766C24.251,63.81,26.019,63.033,26.585,63.033573150634766C28.565,65.155,30.12,69.256,27.786,71.58891296386719C25.453,73.922,21.281,72.296,19.23,70.38685607910156M20.362,62.043270111083984C20.009,62.396,19.584,62.679,19.231,63.03353500366211C19.089,63.174,18.948,63.316,18.806,63.45754623413086L13.927,60.55862045288086L14.917,58.86132049560547L20.362,62.043270111083984M18.594,55.32611846923828L25.17,59.215126037597656C24.817,59.285,24.393,59.426,23.968,59.709564208984375C23.686,59.851,23.332,60.063,22.978,60.27531433105469L17.604,57.022552490234375L18.594,55.32611846923828M16.968,65.71997833251953C16.544,66.286,16.19,66.922,15.978,67.41727447509766L10.392,64.09407043457031L11.382,62.39677429199219L16.968,65.71997833251953Z" transform="matrix(1,0,0,1,0,0)"></path><path d="M14.358,58.08009719848633C18.222,57.044,14.496,43.135,10.632,44.17105484008789C6.768,45.205,2.637,49.108,3.802,53.454833984375C4.967,57.801,10.496,59.115,14.358,58.08009719848633M11.053,46.12881088256836C11.543,46.411,12.684,47.968,13.461,50.866477966308594C14.238,53.764,14.027,55.684,13.744,56.17389678955078C10.917,56.828,6.588,56.124,5.734,52.9375114440918C4.879,49.75,8.375,46.95,11.053,46.12881088256836M17.713,51.27994918823242C17.584,50.797,17.551,50.288,17.421,49.8051872253418C17.37,49.612,17.318,49.419,17.266,49.22610855102539L22.216,46.450130462646484L23.191,48.15626525878906L17.713,51.27994918823242M24.414,53.10807418823242L17.758,56.85859680175781C17.874,56.517,17.964,56.078,17.93,55.56981658935547C17.95,55.254,17.943,54.842,17.935,54.429542541503906L23.439,51.401939392089844L24.414,53.10807418823242M16.225,46.50242233276367C15.948,45.852,15.574,45.227,15.251,44.796287536621094L20.922,41.62017822265625L21.897,43.32631301879883L16.225,46.50242233276367Z" transform="matrix(1,0,0,1,0,0)"></path><path d="M29.93,26.358949661254883C26.067,27.394,29.794,41.303,33.657,40.26799011230469C37.521,39.233,41.652,35.331,40.487,30.98406410217285C39.323,26.638,33.794,25.323,29.93,26.358949661254883M33.236,38.3101921081543C32.747,38.028,31.605,36.47,30.828,33.57219696044922C30.052,30.675,30.262,28.755,30.545,28.264484405517578C33.372,27.611,37.701,28.314,38.555,31.50151824951172C39.409,34.69,35.916,37.489,33.236,38.3101921081543M26.576,33.15878677368164C26.705,33.641,26.738,34.151,26.868,34.633235931396484C26.919,34.827,26.972,35.02,27.023,35.212562561035156L22.073,37.98833084106445L21.098,36.282440185546875L26.576,33.15878677368164M19.875,31.33029556274414L26.531,27.57985496520996C26.415,27.922,26.326,28.36,26.358,28.868305206298828C26.34,29.184,26.347,29.597,26.353,30.008512496948242L20.849,33.036190032958984L19.875,31.33029556274414M28.063,37.936553955078125C28.342,38.587,28.716,39.212,29.038,39.64244842529297L23.367,42.818363189697266L22.392,41.11247253417969L28.063,37.936553955078125Z" transform="matrix(1,0,0,1,0,0)"></path><path d="M20.142,36.3759651184082C21.178,32.513,7.268,28.786,6.233,32.64897537231445C5.198,36.513,6.512,42.042,10.858,43.20594787597656C15.205,44.371,19.107,40.24,20.142,36.3759651184082M8.139,33.26324462890625C8.629,32.981,10.549,32.771,13.446,33.546913146972656C16.344,34.323,17.902,35.466,18.184,35.95558547973633C17.337,38.731,14.563,42.128,11.376,41.27396774291992C8.188,40.42,7.51,35.994,8.139,33.26324462890625M15.93,30.071378707885742C15.448,29.942,14.991,29.716,14.507,29.58687400817871C14.315,29.535,14.122,29.483,13.928,29.43132972717285L13.999,23.756603240966797L15.964,23.765151977539062L15.93,30.071378707885742M20.864,25.18205451965332L20.784,32.82158279418945C20.547,32.551,20.212,32.254,19.754,32.02750015258789C19.491,31.853,19.131,31.653,18.769,31.453086853027344L18.899,25.172639846801758L20.864,25.18205451965332M11.049,28.970226287841797C10.347,28.886,9.619,28.898,9.084,28.96167755126953L9.169,22.462425231933594L11.134,22.470975875854492L11.049,28.970226287841797Z" transform="matrix(1,0,0,1,0,0)"></path><path d="M16.361,22.890535354614258C19.19,25.719,29.372,15.537,26.543,12.70848560333252C23.716,9.88,18.27,8.253,15.088,11.435436248779297C11.906,14.618,13.533,20.063,16.361,22.890535354614258M25.058,14.052013397216797C25.058,14.618,24.281,16.385,22.159,18.50634002685547C20.038,20.628,18.27,21.405,17.704,21.405380249023438C15.725,19.284,14.169,15.183,16.502,12.849963188171387C18.836,10.516,23.008,12.143,25.058,14.052013397216797M23.927,22.395286560058594C24.281,22.042,24.705,21.759,25.058,21.40534019470215C25.2,21.264,25.341,21.123,25.482,20.981557846069336L30.361,23.880516052246094L29.371,25.57785987854004L23.927,22.395286560058594M25.694,29.113100051879883L19.118,25.224014282226562C19.472,25.154,19.897,25.012,20.321,24.72878074645996C20.604,24.588,20.957,24.376,21.311,24.162982940673828L26.685,27.415756225585938L25.694,29.113100051879883M27.321,18.718669891357422C27.746,18.153,28.099,17.517,28.311,17.02132797241211L33.897,20.34465980529785L32.907,22.04200553894043L27.321,18.718669891357422Z" transform="matrix(1,0,0,1,0,0)"></path></g></symbol></defs><rect width="100%" height="100%" id="BgenPttrnRctLayer1" fill="url(#BgenPttrnLayer1)"></rect><rect width="100%" height="100%" id="BgenPttrnRctLayer2" fill="url(#BgenPttrnLayer2)"></rect></svg>