<svg xmlns="http://www.w3.org/2000/svg" version="1.1" xmlns:xlink="http://www.w3.org/1999/xlink" xmlns:svgjs="http://svgjs.com/svgjs" id="BgenPttrnSvgRootPreview" width="100%" height="100%"><defs><pattern x="0" y="0" width="1" height="1" patternUnits="userSpaceOnUse" id="BgenPttrnLayer1"><g id="PatternRootContent1"><g id="BgenPttrnLayer1background"><rect width="1" height="1" id="BgenPttrnBackground1" class="color_1 fill_color_1" fill="#000000"></rect></g></g></pattern><pattern x="0" y="0" width="16" height="34" patternUnits="userSpaceOnUse" id="BgenPttrnLayer2" patternTransform="matrix(1.4,0,0,1.4,0,0)"><g id="PatternRootContent2"><g id="BgenPttrnLayer2Element1"><use xlink:href="#BgenPttrnElement1" x="4" y="-20.5" transform="translate(14.015000343322754, -10.484999656677246) scale(1) translate(-14.015000343322754, 10.484999656677246) rotate(90, 16, -8.5)"></use><use xlink:href="#BgenPttrnElement1" x="-12" y="-20.5" transform="translate(-1.984999656677246, -10.484999656677246) scale(1) translate(1.984999656677246, 10.484999656677246) rotate(90, 0, -8.5)"></use><use xlink:href="#BgenPttrnElement1" x="-4" y="-3.5" transform="translate(6.015000343322754, 6.515000343322754) scale(1) translate(-6.015000343322754, -6.515000343322754) rotate(90, 8, 8.5)"></use><use xlink:href="#BgenPttrnElement1" x="-20" y="-3.5" transform="translate(-9.984999656677246, 6.515000343322754) scale(1) translate(9.984999656677246, -6.515000343322754) rotate(90, -8, 8.5)"></use><use xlink:href="#BgenPttrnElement1" x="12" y="-3.5" transform="translate(22.015000343322754, 6.515000343322754) scale(1) translate(-22.015000343322754, -6.515000343322754) rotate(90, 24, 8.5)"></use><use xlink:href="#BgenPttrnElement1" x="4" y="13.5" transform="translate(14.015000343322754, 23.515000343322754) scale(1) translate(-14.015000343322754, -23.515000343322754) rotate(90, 16, 25.5)"></use><use xlink:href="#BgenPttrnElement1" x="-12" y="13.5" transform="translate(-1.984999656677246, 23.515000343322754) scale(1) translate(1.984999656677246, -23.515000343322754) rotate(90, 0, 25.5)"></use><use xlink:href="#BgenPttrnElement1" x="-4" y="30.5" transform="translate(6.015000343322754, 40.515000343322754) scale(1) translate(-6.015000343322754, -40.515000343322754) rotate(90, 8, 42.5)"></use><use xlink:href="#BgenPttrnElement1" x="-4" y="30.5" transform="translate(6.015000343322754, 40.515000343322754) scale(1) translate(-6.015000343322754, -40.515000343322754) rotate(90, 8, 42.5)"></use></g></g></pattern><symbol id="BgenPttrnElement1"><path d="M7,3V5H17V3H7M9,7V9H15V7H9M2,7.96V16.04L6.03,12L2,7.96M22.03,7.96L18,12L22.03,16.04V7.96M7,11V13H17V11H7M9,15V17H15V15H9M7,19V21H17V19H7Z" class="color_2 fill_color_2" fill="#0f0600"></path></symbol></defs><rect width="100%" height="100%" id="BgenPttrnRctLayer1" fill="url(#BgenPttrnLayer1)"></rect><rect width="100%" height="100%" id="BgenPttrnRctLayer2" fill="url(#BgenPttrnLayer2)"></rect></svg>