<svg xmlns="http://www.w3.org/2000/svg" version="1.1" xmlns:xlink="http://www.w3.org/1999/xlink" xmlns:svgjs="http://svgjs.com/svgjs" id="BgenPttrnSvgRootPreview" width="100%" height="100%"><defs><pattern x="0" y="0" width="1" height="1" patternUnits="userSpaceOnUse" id="BgenPttrnLayer1"><g id="PatternRootContent1"><g id="BgenPttrnLayer1background"><rect width="1" height="1" id="BgenPttrnBackground1" class="color_1 fill_color_1" fill="#000000"></rect></g></g></pattern><pattern x="0" y="0" width="200" height="200" patternUnits="userSpaceOnUse" id="BgenPttrnLayer2" patternTransform="matrix(0.5,0,0,0.5,0,0)"><g id="PatternRootContent2"><g id="BgenPttrnLayer2Element2"><use xlink:href="#BgenPttrnElement2" x="153.9116973876953" y="-96.08830261230469" transform="translate(200, -50) scale(1) translate(-200, 50) rotate(90, 200, -50)"></use><use xlink:href="#BgenPttrnElement2" x="-46.08830261230469" y="-96.08830261230469" transform="translate(0, -50) scale(1) translate(0, 50) rotate(90, 0, -50)"></use><use xlink:href="#BgenPttrnElement2" x="53.91169738769531" y="3.9116973876953125" transform="translate(100, 50) scale(1) translate(-100, -50) rotate(90, 100, 50)"></use><use xlink:href="#BgenPttrnElement2" x="-146.0883026123047" y="3.9116973876953125" transform="translate(-100, 50) scale(1) translate(100, -50) rotate(90, -100, 50)"></use><use xlink:href="#BgenPttrnElement2" x="253.9116973876953" y="3.9116973876953125" transform="translate(300, 50) scale(1) translate(-300, -50) rotate(90, 300, 50)"></use><use xlink:href="#BgenPttrnElement2" x="153.9116973876953" y="103.91169738769531" transform="translate(200, 150) scale(1) translate(-200, -150) rotate(90, 200, 150)"></use><use xlink:href="#BgenPttrnElement2" x="-46.08830261230469" y="103.91169738769531" transform="translate(0, 150) scale(1) translate(0, -150) rotate(90, 0, 150)"></use><use xlink:href="#BgenPttrnElement2" x="53.91169738769531" y="203.9116973876953" transform="translate(100, 250) scale(1) translate(-100, -250) rotate(90, 100, 250)"></use><use xlink:href="#BgenPttrnElement2" x="53.91169738769531" y="203.9116973876953" transform="translate(100, 250) scale(1) translate(-100, -250) rotate(90, 100, 250)"></use></g></g></pattern><symbol id="BgenPttrnElement2"><g class="color_3 fill_color_3" fill="#0f0600"><path d="M41.892,92.17660522460938L60.24,53.955360412597656L22.006,72.27791595458984L41.901,72.2828598022461Z" transform="matrix(1,0,0,1,0,0)"></path><path d="M0,41.892330169677734L38.221,60.23963165283203L19.899,22.006366729736328L19.894,41.900814056396484Z" transform="matrix(1,0,0,1,0,0)"></path><path d="M50.284,7.958078640513122e-13L31.937,38.22124481201172L70.17,19.898693084716797L50.276,19.89374542236328Z" transform="matrix(1,0,0,1,0,0)"></path><path d="M92.177,50.28427505493164L53.955,31.936975479125977L72.278,70.17024230957031L72.283,50.27579116821289Z" transform="matrix(1,0,0,1,0,0)"></path></g></symbol></defs><rect width="100%" height="100%" id="BgenPttrnRctLayer1" fill="url(#BgenPttrnLayer1)"></rect><rect width="100%" height="100%" id="BgenPttrnRctLayer2" fill="url(#BgenPttrnLayer2)"></rect></svg>