<svg xmlns="http://www.w3.org/2000/svg" version="1.1" xmlns:xlink="http://www.w3.org/1999/xlink" xmlns:svgjs="http://svgjs.com/svgjs" id="BgenPttrnSvgRootPreview" width="100%" height="100%"><defs><pattern x="0" y="0" width="1" height="1" patternUnits="userSpaceOnUse" id="BgenPttrnLayer1"><g id="PatternRootContent1"><g id="BgenPttrnLayer1background"><rect width="1" height="1" id="BgenPttrnBackground1" class="color_1 fill_color_1" fill="#000000"></rect></g></g></pattern><pattern x="0" y="0" width="92" height="144" patternUnits="userSpaceOnUse" id="BgenPttrnLayer2" patternTransform="matrix(1,0,0,1,0,0)"><g id="PatternRootContent2"><g id="BgenPttrnLayer2Element3"><use xlink:href="#BgenPttrnElement3" x="37.391197204589844" y="-83.54121780395508" transform="translate(92, -36) scale(1) translate(-92, 36) rotate(0, 92, -36)"></use><use xlink:href="#BgenPttrnElement3" x="-54.608802795410156" y="-83.54121780395508" transform="translate(0, -36) scale(1) translate(0, 36) rotate(0, 0, -36)"></use><use xlink:href="#BgenPttrnElement3" x="-8.608802795410156" y="-11.541217803955078" transform="translate(46, 36) scale(1) translate(-46, -36) rotate(0, 46, 36)"></use><use xlink:href="#BgenPttrnElement3" x="-100.60880279541016" y="-11.541217803955078" transform="translate(-46, 36) scale(1) translate(46, -36) rotate(0, -46, 36)"></use><use xlink:href="#BgenPttrnElement3" x="83.39119720458984" y="-11.541217803955078" transform="translate(138, 36) scale(1) translate(-138, -36) rotate(0, 138, 36)"></use><use xlink:href="#BgenPttrnElement3" x="37.391197204589844" y="60.45878219604492" transform="translate(92, 108) scale(1) translate(-92, -108) rotate(0, 92, 108)"></use><use xlink:href="#BgenPttrnElement3" x="-54.608802795410156" y="60.45878219604492" transform="translate(0, 108) scale(1) translate(0, -108) rotate(0, 0, 108)"></use><use xlink:href="#BgenPttrnElement3" x="-8.608802795410156" y="132.45878219604492" transform="translate(46, 180) scale(1) translate(-46, -180) rotate(0, 46, 180)"></use><use xlink:href="#BgenPttrnElement3" x="-8.608802795410156" y="132.45878219604492" transform="translate(46, 180) scale(1) translate(-46, -180) rotate(0, 46, 180)"></use></g></g></pattern><symbol id="BgenPttrnElement3"><g class="color_4 fill_color_4" fill="#0f0600"><path d="M61.326,48.53608703613281L61.327,75.40544128417969L34.456,75.40614318847656L55.406,69.48412322998047Z" transform="matrix(1,0,0,1,0,0)"></path><path d="M74.765,95.08244323730469L51.495,81.64837646484375L64.93,58.37725830078125L59.584,79.48102569580078Z" transform="matrix(1,0,0,1,0,0)"></path><path d="M27.735,83.44735717773438L51.004,70.01206970214844L64.44,93.28248596191406L48.837,78.10073852539062Z" transform="matrix(1,0,0,1,0,0)"></path><path d="M57.106,53.855926513671875L33.837,67.29146575927734L20.401,44.020851135253906L36.004,59.20307540893555Z" transform="matrix(1,0,0,1,0,0)"></path><path d="M23.515,88.76761627197266L23.514,61.89817428588867L50.385,61.89766311645508L29.436,67.81977844238281Z" transform="matrix(1,0,0,1,0,0)"></path><path d="M10.076,42.22090148925781L33.346,55.65480422973633L19.911,78.9259262084961L25.258,57.82246017456055Z" transform="matrix(1,0,0,1,0,0)"></path><path d="M50.389,52.86105728149414L27.119,39.42724609375L40.553,16.15592384338379L35.207,37.26016616821289Z" transform="matrix(1,0,0,1,0,0)"></path><path d="M3.359,41.22639846801758L26.628,27.791013717651367L40.064,51.06162643432617L24.461,35.87997055053711Z" transform="matrix(1,0,0,1,0,0)"></path><path d="M36.95,6.31475830078125L36.951,33.1839485168457L10.08,33.184661865234375L31.029,27.262937545776367Z" transform="matrix(1,0,0,1,0,0)"></path><path d="M47.892,46.546348571777344L47.891,19.676998138427734L74.762,19.676292419433594L53.812,25.598310470581055Z" transform="matrix(1,0,0,1,0,0)"></path><path d="M34.453,-0.000003814697265625L57.723,13.434059143066406L44.288,36.705177307128906L49.634,15.601409912109375Z" transform="matrix(1,0,0,1,0,0)"></path><path d="M81.483,11.635074615478516L58.214,25.070362091064453L44.778,1.7999496459960938L60.381,16.98169708251953Z" transform="matrix(1,0,0,1,0,0)"></path><path d="M52.112,41.22650909423828L75.381,27.79096794128418L88.817,51.06158447265625L73.213,35.87936019897461Z" transform="matrix(1,0,0,1,0,0)"></path><path d="M85.703,6.314815044403076L85.703,33.184261322021484L58.832,33.18476867675781L79.782,27.26265525817871Z" transform="matrix(1,0,0,1,0,0)"></path><path d="M99.141,52.861534118652344L75.872,39.42763137817383L89.306,16.156505584716797L83.96,37.25997543334961Z" transform="matrix(1,0,0,1,0,0)"></path><path d="M58.829,42.22137451171875L82.099,55.65518569946289L68.664,78.92650604248047L74.011,57.822265625Z" transform="matrix(1,0,0,1,0,0)"></path><path d="M105.859,53.85603713989258L82.59,67.29141998291016L69.154,44.020809173583984L84.757,59.20246505737305Z" transform="matrix(1,0,0,1,0,0)"></path><path d="M72.268,88.7676773071289L72.267,61.89848709106445L99.138,61.89777374267578L78.188,67.81949615478516Z" transform="matrix(1,0,0,1,0,0)"></path></g></symbol></defs><rect width="100%" height="100%" id="BgenPttrnRctLayer1" fill="url(#BgenPttrnLayer1)"></rect><rect width="100%" height="100%" id="BgenPttrnRctLayer2" fill="url(#BgenPttrnLayer2)"></rect></svg>