<svg xmlns="http://www.w3.org/2000/svg" version="1.1" xmlns:xlink="http://www.w3.org/1999/xlink" xmlns:svgjs="http://svgjs.com/svgjs" id="BgenPttrnSvgRootPreview" width="100%" height="100%"><defs><pattern x="0" y="0" width="1" height="1" patternUnits="userSpaceOnUse" id="BgenPttrnLayer1"><g id="PatternRootContent1"><g id="BgenPttrnLayer1background"><rect width="1" height="1" id="BgenPttrnBackground1" class="color_1 fill_color_1" fill="#0f0600"></rect></g></g></pattern><pattern x="0" y="0" width="53" height="88" patternUnits="userSpaceOnUse" id="BgenPttrnLayer2" patternTransform="matrix(0.5,0,0,0.5,0,0)"><g id="PatternRootContent2"><g id="BgenPttrnLayer2Element2"><use xlink:href="#BgenPttrnElement2" x="17.76229476928711" y="-52.516754150390625" transform="translate(53, -22) scale(1) translate(-53, 22) rotate(0, 53, -22)"></use><use xlink:href="#BgenPttrnElement2" x="-35.23770523071289" y="-52.516754150390625" transform="translate(0, -22) scale(1) translate(0, 22) rotate(0, 0, -22)"></use><use xlink:href="#BgenPttrnElement2" x="-8.73770523071289" y="-8.516754150390625" transform="translate(26.5, 22) scale(1) translate(-26.5, -22) rotate(0, 26.5, 22)"></use><use xlink:href="#BgenPttrnElement2" x="-61.73770523071289" y="-8.516754150390625" transform="translate(-26.5, 22) scale(1) translate(26.5, -22) rotate(0, -26.5, 22)"></use><use xlink:href="#BgenPttrnElement2" x="44.26229476928711" y="-8.516754150390625" transform="translate(79.5, 22) scale(1) translate(-79.5, -22) rotate(0, 79.5, 22)"></use><use xlink:href="#BgenPttrnElement2" x="17.76229476928711" y="35.483245849609375" transform="translate(53, 66) scale(1) translate(-53, -66) rotate(0, 53, 66)"></use><use xlink:href="#BgenPttrnElement2" x="-35.23770523071289" y="35.483245849609375" transform="translate(0, 66) scale(1) translate(0, -66) rotate(0, 0, 66)"></use><use xlink:href="#BgenPttrnElement2" x="-8.73770523071289" y="79.48324584960938" transform="translate(26.5, 110) scale(1) translate(-26.5, -110) rotate(0, 26.5, 110)"></use><use xlink:href="#BgenPttrnElement2" x="-8.73770523071289" y="79.48324584960938" transform="translate(26.5, 110) scale(1) translate(-26.5, -110) rotate(0, 26.5, 110)"></use></g></g></pattern><symbol id="BgenPttrnElement2"><g class="color_3 fill_color_3" fill="#000000"><path d="M35.238,31.819496154785156L15.238,17.677499771118164L35.238,3.5354995727539062L55.238,17.677499771118164Z" transform="matrix(1,0,0,1,0,0)"></path><path d="M35.981,33.10649490356445L58.228,22.856983184814453L60.475,47.24849319458008L38.228,57.49800109863281Z" transform="matrix(1,0,0,1,0,0)"></path><path d="M34.495,33.106502532958984L32.247,57.498008728027344L10,47.24850082397461L12.247,22.856990814208984Z" transform="matrix(1,0,0,1,0,0)"></path></g></symbol></defs><rect width="100%" height="100%" id="BgenPttrnRctLayer1" fill="url(#BgenPttrnLayer1)"></rect><rect width="100%" height="100%" id="BgenPttrnRctLayer2" fill="url(#BgenPttrnLayer2)"></rect></svg>