<svg xmlns="http://www.w3.org/2000/svg" version="1.1" xmlns:xlink="http://www.w3.org/1999/xlink" xmlns:svgjs="http://svgjs.com/svgjs" id="BgenPttrnSvgRootPreview" width="100%" height="100%"><defs><pattern x="0" y="0" width="1" height="1" patternUnits="userSpaceOnUse" id="BgenPttrnLayer1"><g id="PatternRootContent1"><g id="BgenPttrnLayer1background"><rect width="1" height="1" id="BgenPttrnBackground1" class="color_1 fill_color_1" fill="#0f0600"></rect></g></g></pattern><pattern x="0" y="0" width="43" height="80" patternUnits="userSpaceOnUse" id="BgenPttrnLayer2" patternTransform="matrix(0.8,0,0,0.8,0,0)"><g id="PatternRootContent2"><g id="BgenPttrnLayer2Element3"><use xlink:href="#BgenPttrnElement3" x="23.5" y="-50" transform="translate(43, -20) scale(1) translate(-43, 20) rotate(45, 43, -20)"></use><use xlink:href="#BgenPttrnElement3" x="-19.5" y="-50" transform="translate(0, -20) scale(1) translate(0, 20) rotate(45, 0, -20)"></use><use xlink:href="#BgenPttrnElement3" x="2" y="-10" transform="translate(21.5, 20) scale(1) translate(-21.5, -20) rotate(45, 21.5, 20)"></use><use xlink:href="#BgenPttrnElement3" x="-41" y="-10" transform="translate(-21.5, 20) scale(1) translate(21.5, -20) rotate(45, -21.5, 20)"></use><use xlink:href="#BgenPttrnElement3" x="45" y="-10" transform="translate(64.5, 20) scale(1) translate(-64.5, -20) rotate(45, 64.5, 20)"></use><use xlink:href="#BgenPttrnElement3" x="23.5" y="30" transform="translate(43, 60) scale(1) translate(-43, -60) rotate(45, 43, 60)"></use><use xlink:href="#BgenPttrnElement3" x="-19.5" y="30" transform="translate(0, 60) scale(1) translate(0, -60) rotate(45, 0, 60)"></use><use xlink:href="#BgenPttrnElement3" x="2" y="70" transform="translate(21.5, 100) scale(1) translate(-21.5, -100) rotate(45, 21.5, 100)"></use><use xlink:href="#BgenPttrnElement3" x="2" y="70" transform="translate(21.5, 100) scale(1) translate(-21.5, -100) rotate(45, 21.5, 100)"></use></g></g></pattern><symbol id="BgenPttrnElement3"><g class="color_4 fill_color_4" fill="#000000"><path d="M20,0L39,18.999000549316406L20,38L30.626,18.999000549316406Z" transform="matrix(1,0,0,1,0,0)"></path><path d="M39,60L20,41.000999450683594L39,22L28.374,41.000999450683594Z" transform="matrix(1,0,0,1,0,0)"></path><path d="M10,0L29,18.999000549316406L10,38L20.626,18.999000549316406Z" transform="matrix(1,0,0,1,0,0)"></path><path d="M29,60L10,41.000999450683594L29,22L18.374,41.000999450683594Z" transform="matrix(1,0,0,1,0,0)"></path><path d="M0,0L19,18.999000549316406L0,38L10.626,18.999000549316406Z" transform="matrix(1,0,0,1,0,0)"></path><path d="M19,60L0,41.000999450683594L19,22L8.374,41.000999450683594Z" transform="matrix(1,0,0,1,0,0)"></path></g></symbol></defs><rect width="100%" height="100%" id="BgenPttrnRctLayer1" fill="url(#BgenPttrnLayer1)"></rect><rect width="100%" height="100%" id="BgenPttrnRctLayer2" fill="url(#BgenPttrnLayer2)"></rect></svg>