<svg xmlns="http://www.w3.org/2000/svg" version="1.1" xmlns:xlink="http://www.w3.org/1999/xlink" xmlns:svgjs="http://svgjs.com/svgjs" id="BgenPttrnSvgRootPreview" width="100%" height="100%"><defs><pattern x="0" y="0" width="1" height="1" patternUnits="userSpaceOnUse" id="BgenPttrnLayer1"><g id="PatternRootContent1"><g id="BgenPttrnLayer1background"><rect width="1" height="1" id="BgenPttrnBackground1" class="color_1 fill_color_1" fill="#000000"></rect></g></g></pattern><pattern x="0" y="0" width="163" height="284" patternUnits="userSpaceOnUse" id="BgenPttrnLayer2" patternTransform="matrix(0.69,0,0,0.69,0,0)"><g id="PatternRootContent2"><g id="BgenPttrnLayer2Element3"><use xlink:href="#BgenPttrnElement3" x="71.30339050292969" y="-155.33751678466797" transform="translate(163, -71) scale(1) translate(-163, 71) rotate(90, 163, -71)"></use><use xlink:href="#BgenPttrnElement3" x="-91.69660949707031" y="-155.33751678466797" transform="translate(0, -71) scale(1) translate(0, 71) rotate(90, 0, -71)"></use><use xlink:href="#BgenPttrnElement3" x="-10.196609497070312" y="-13.337516784667969" transform="translate(81.5, 71) scale(1) translate(-81.5, -71) rotate(90, 81.5, 71)"></use><use xlink:href="#BgenPttrnElement3" x="-173.1966094970703" y="-13.337516784667969" transform="translate(-81.5, 71) scale(1) translate(81.5, -71) rotate(90, -81.5, 71)"></use><use xlink:href="#BgenPttrnElement3" x="152.8033905029297" y="-13.337516784667969" transform="translate(244.5, 71) scale(1) translate(-244.5, -71) rotate(90, 244.5, 71)"></use><use xlink:href="#BgenPttrnElement3" x="71.30339050292969" y="128.66248321533203" transform="translate(163, 213) scale(1) translate(-163, -213) rotate(90, 163, 213)"></use><use xlink:href="#BgenPttrnElement3" x="-91.69660949707031" y="128.66248321533203" transform="translate(0, 213) scale(1) translate(0, -213) rotate(90, 0, 213)"></use><use xlink:href="#BgenPttrnElement3" x="-10.196609497070312" y="270.66248321533203" transform="translate(81.5, 355) scale(1) translate(-81.5, -355) rotate(90, 81.5, 355)"></use><use xlink:href="#BgenPttrnElement3" x="-10.196609497070312" y="270.66248321533203" transform="translate(81.5, 355) scale(1) translate(-81.5, -355) rotate(90, 81.5, 355)"></use></g></g></pattern><symbol id="BgenPttrnElement0"><path d="M20,40C8.971,40,0,31.028,0,20.001C0,8.972,8.971,0,20,0s20,8.972,20,20.001C40,31.028,31.029,40,20,40zM20,2.637c-9.574,0-17.363,7.789-17.363,17.363c0,9.573,7.789,17.362,17.363,17.362s17.363-7.789,17.363-17.362C37.363,10.426,29.574,2.637,20,2.637z"></path></symbol><symbol id="BgenPttrnElement3"><g class="color_5 fill_color_5" fill="#1f0500"><path d="M91.697,158.67955017089844C80.668,158.679,71.697,149.707,71.697,138.6805419921875C71.697,127.651,80.668,118.679,91.697,118.6795425415039s20,8.972,20,20.001C111.697,149.707,102.726,158.679,91.697,158.67955017089844ZM91.697,121.31654357910156c-9.574,0,-17.363,7.789,-17.363,17.363c0,9.573,7.789,17.362,17.363,17.362s17.363,-7.789,17.363,-17.362C109.06,129.105,101.271,121.316,91.697,121.31654357910156Z" transform="matrix(1,0,0,1,0,0)"></path><g transform="matrix(1,0,0,1,0,0)"><path d="M91.697,138.67955017089844C80.67,138.679,71.697,129.707,71.697,118.6805419921875S80.67,98.679,91.697,98.6795425415039s20,8.973,20,20.001S102.724,138.679,91.697,138.67955017089844ZM91.697,103.6285400390625c-8.3,0,-15.052,6.752,-15.052,15.052c0,8.299,6.752,15.051,15.052,15.051s15.052,-6.752,15.052,-15.051C106.749,110.38,99.997,103.628,91.697,103.6285400390625Z"></path><path d="M91.697,138.67955017089844C97.211,129.13,109.467,125.845,119.017,131.35853576660156S131.852,149.13,126.338,158.67955017089844s-17.771,12.834,-27.321,7.32S86.184,148.229,91.697,138.67955017089844ZM122.052,156.20504760742188c4.15,-7.188,1.679,-16.411,-5.509,-20.561c-7.187,-4.15,-16.411,-1.678,-20.561,5.51s-1.679,16.411,5.509,20.561C108.679,165.864,117.902,163.393,122.052,156.20504760742188Z"></path><path d="M91.697,138.67955017089844C97.211,148.229,93.927,160.486,84.377,165.9995574951172S62.57,168.229,57.056,158.67955017089844s-2.229,-21.807,7.321,-27.321S86.184,129.13,91.697,138.67955017089844ZM61.342,156.20504760742188c4.15,7.188,13.373,9.659,20.561,5.509c7.187,-4.149,9.659,-13.373,5.509,-20.561s-13.373,-9.659,-20.561,-5.51C59.663,139.793,57.192,149.017,61.342,156.20504760742188Z"></path></g><path d="M27.315,121.50850677490234C21.8,111.957,25.085,99.702,34.634,94.1884994506836C44.186,88.674,56.441,91.957,61.956,101.50850677490234s2.23,21.807,-7.322,27.321C45.085,134.343,32.829,131.06,27.315,121.50850677490234ZM59.672,102.82701110839844c-4.787,-8.291,-15.427,-11.142,-23.718,-6.355c-8.29,4.786,-11.141,15.426,-6.354,23.718s15.427,11.142,23.717,6.356C61.608,121.758,64.459,111.118,59.672,102.82701110839844Z" transform="matrix(1,0,0,1,0,0)"></path><g transform="matrix(1,0,0,1,0,0)"><path d="M44.635,111.50850677490234C39.122,101.959,42.405,89.702,51.955,84.1884994506836S73.763,81.959,79.276,91.50850677490234s2.229,21.807,-7.321,27.321S50.149,121.058,44.635,111.50850677490234ZM74.99,93.9830093383789c-4.15,-7.188,-13.373,-9.659,-20.561,-5.509c-7.187,4.149,-9.659,13.373,-5.509,20.561s13.373,9.659,20.561,5.51C76.669,110.394,79.141,101.171,74.99,93.9830093383789Z"></path><path d="M44.635,111.50850677490234C55.662,111.509,64.635,120.481,64.635,131.5078125S55.662,151.509,44.635,151.5084991455078s-20,-8.973,-20,-20.001S33.608,111.509,44.635,111.50850677490234ZM44.635,146.55946350097656c8.3,0,15.052,-6.751,15.052,-15.051c0.001,-8.299,-6.752,-15.051,-15.052,-15.051s-15.052,6.751,-15.052,15.051C29.584,139.808,36.335,146.559,44.635,146.55946350097656Z"></path><path d="M44.635,111.50850677490234C39.122,121.059,26.865,124.343,17.315,118.82920837402344S4.481,101.059,9.994,91.5085220336914s17.771,-12.834,27.321,-7.32S50.149,101.959,44.635,111.50850677490234ZM14.28,93.9830551147461c-4.15,7.188,-1.678,16.411,5.51,20.561c7.187,4.15,16.411,1.678,20.561,-5.51s1.678,-16.411,-5.509,-20.561C27.654,84.323,18.43,86.795,14.28,93.9830551147461Z"></path></g><path d="M27.315,47.166465759277344C32.829,37.615,45.085,34.332,54.634,39.845458984375C64.186,45.36,67.471,57.615,61.956,67.16646575927734s-17.77,12.835,-27.322,7.32C25.085,68.973,21.8,56.718,27.315,47.166465759277344ZM59.672,65.84796142578125c4.787,-8.291,1.936,-18.931,-6.355,-23.718c-8.29,-4.786,-18.93,-1.936,-23.717,6.356s-1.936,18.931,6.354,23.718C44.245,76.991,54.885,74.14,59.672,65.84796142578125Z" transform="matrix(1,0,0,1,0,0)"></path><g transform="matrix(1,0,0,1,0,0)"><path d="M44.635,57.166465759277344C50.149,47.617,62.405,44.332,71.955,49.845458984375S84.79,67.617,79.276,77.16646575927734s-17.771,12.834,-27.321,7.32S39.122,66.716,44.635,57.166465759277344ZM74.99,74.69196319580078c4.15,-7.188,1.679,-16.411,-5.509,-20.561c-7.187,-4.15,-16.411,-1.678,-20.561,5.51s-1.679,16.411,5.509,20.561C61.617,84.352,70.841,81.88,74.99,74.69196319580078Z"></path><path d="M44.635,57.166465759277344C50.148,66.717,46.865,78.973,37.315,84.48678588867188S15.507,86.717,9.994,77.16645050048828s-2.229,-21.807,7.321,-27.321S39.121,47.617,44.635,57.166465759277344ZM14.28,74.6919174194336c4.15,7.188,13.373,9.66,20.561,5.51c7.188,-4.149,9.659,-13.373,5.509,-20.561s-13.373,-9.66,-20.561,-5.51C12.602,58.281,10.13,67.504,14.28,74.6919174194336Z"></path><path d="M44.635,57.166465759277344C33.608,57.167,24.635,48.194,24.635,37.167152404785156S33.608,17.167,44.635,17.166481018066406s20,8.973,20,20.001S55.662,57.167,44.635,57.166465759277344ZM44.635,22.11551284790039c-8.3,0,-15.051,6.752,-15.051,15.052c0,8.299,6.752,15.051,15.052,15.051s15.051,-6.752,15.052,-15.051C59.688,28.868,52.935,22.116,44.635,22.11551284790039Z"></path></g><path d="M91.697,9.995461463928223C102.726,9.996,111.697,18.968,111.697,29.994461059570312C111.697,41.024,102.726,49.996,91.697,49.995460510253906s-20,-8.972,-20,-20.001C71.697,18.968,80.668,9.996,91.697,9.995461463928223ZM91.697,47.35845947265625c9.574,0,17.363,-7.789,17.363,-17.363c0,-9.573,-7.789,-17.362,-17.363,-17.362s-17.363,7.789,-17.363,17.362C74.334,39.57,82.123,47.359,91.697,47.35845947265625Z" transform="matrix(1,0,0,1,0,0)"></path><g transform="matrix(1,0,0,1,0,0)"><path d="M91.697,29.995460510253906C102.724,29.996,111.697,38.968,111.697,49.99446105957031S102.724,69.996,91.697,69.9954605102539s-20,-8.973,-20,-20.001S80.67,29.996,91.697,29.995460510253906ZM91.697,65.04646301269531c8.3,0,15.052,-6.752,15.052,-15.052c0,-8.299,-6.752,-15.051,-15.052,-15.051s-15.052,6.752,-15.052,15.051C76.645,58.295,83.397,65.047,91.697,65.04646301269531Z"></path><path d="M91.697,29.995460510253906C86.183,39.545,73.927,42.83,64.377,37.31646728515625S51.542,19.545,57.056,9.995461463928223s17.771,-12.834,27.321,-7.32S97.21,20.446,91.697,29.995460510253906ZM61.342,12.469956398010254c-4.15,7.188,-1.679,16.411,5.509,20.561c7.187,4.15,16.411,1.678,20.561,-5.51s1.679,-16.411,-5.509,-20.561C74.715,2.811,65.492,5.282,61.342,12.469956398010254Z"></path><path d="M91.697,29.995460510253906C86.183,20.446,89.467,8.189,99.017,2.6754465103149414S120.824,0.446,126.338,9.995461463928223s2.229,21.807,-7.321,27.321S97.21,39.545,91.697,29.995460510253906ZM122.052,12.469956398010254c-4.15,-7.188,-13.373,-9.659,-20.561,-5.509c-7.187,4.149,-9.659,13.373,-5.509,20.561s13.373,9.659,20.561,5.51C123.731,28.882,126.202,19.658,122.052,12.469956398010254Z"></path></g><path d="M156.079,47.16649627685547C161.593,56.718,158.308,68.973,148.759,74.48650360107422C139.207,80.001,126.952,76.718,121.438,67.16649627685547s-2.23,-21.807,7.321,-27.321C138.308,34.332,150.564,37.615,156.079,47.16649627685547ZM123.721,65.84799194335938c4.787,8.291,15.427,11.142,23.719,6.355c8.29,-4.786,11.141,-15.426,6.354,-23.718s-15.427,-11.142,-23.717,-6.356C121.785,46.917,118.934,57.557,123.721,65.84799194335938Z" transform="matrix(1,0,0,1,0,0)"></path><g transform="matrix(1,0,0,1,0,0)"><path d="M138.758,57.16649627685547C144.271,66.716,140.988,78.973,131.439,84.48650360107422S109.63,86.716,104.117,77.16649627685547s-2.229,-21.807,7.322,-27.321S133.244,47.617,138.758,57.16649627685547ZM108.403,74.6919937133789c4.15,7.188,13.374,9.659,20.562,5.509c7.187,-4.149,9.659,-13.373,5.509,-20.561s-13.373,-9.659,-20.561,-5.51C106.724,58.281,104.253,67.504,108.403,74.6919937133789Z"></path><path d="M138.758,57.16649627685547C127.731,57.166,118.758,48.195,118.758,37.16718292236328S127.731,17.166,138.758,17.1665096282959s20,8.973,20,20.001S149.785,57.166,138.758,57.16649627685547ZM138.758,22.115537643432617c-8.3,0,-15.052,6.751,-15.052,15.051c-0.001,8.299,6.752,15.051,15.052,15.051s15.052,-6.751,15.052,-15.051C153.81,28.867,147.058,22.116,138.758,22.115537643432617Z"></path><path d="M138.758,57.16649627685547C144.271,47.617,156.528,44.332,166.078,49.845794677734375S178.912,67.617,173.399,77.1664810180664s-17.771,12.834,-27.321,7.32S133.245,66.716,138.758,57.16649627685547ZM169.113,74.69194793701172c4.15,-7.188,1.679,-16.411,-5.509,-20.561c-7.187,-4.15,-16.411,-1.678,-20.561,5.51s-1.678,16.411,5.509,20.561C155.739,84.352,164.963,81.88,169.113,74.69194793701172Z"></path></g><path d="M156.079,121.508544921875C150.564,131.06,138.308,134.343,128.759,128.8295440673828C119.207,123.315,115.923,111.06,121.438,101.508544921875s17.77,-12.835,27.321,-7.32C158.308,99.702,161.593,111.957,156.079,121.508544921875ZM123.721,102.8270492553711c-4.787,8.291,-1.936,18.931,6.356,23.718c8.29,4.787,18.93,1.936,23.717,-6.356s1.936,-18.931,-6.354,-23.718C139.148,91.684,128.508,94.535,123.721,102.8270492553711Z" transform="matrix(1,0,0,1,0,0)"></path><g transform="matrix(1,0,0,1,0,0)"><path d="M138.758,111.508544921875C133.244,121.058,120.988,124.343,111.439,118.82955169677734S98.603,101.058,104.117,91.508544921875s17.771,-12.834,27.322,-7.32S144.271,101.959,138.758,111.508544921875ZM108.403,93.98304748535156c-4.15,7.188,-1.678,16.411,5.51,20.561c7.187,4.149,16.411,1.678,20.561,-5.51s1.679,-16.411,-5.509,-20.561C121.776,84.323,112.553,86.795,108.403,93.98304748535156Z"></path><path d="M138.758,111.508544921875C133.245,101.959,136.528,89.702,146.078,84.18822479248047S167.886,81.959,173.399,91.50856018066406s2.229,21.807,-7.321,27.321S144.272,121.058,138.758,111.508544921875ZM169.113,93.98309326171875c-4.15,-7.188,-13.373,-9.66,-20.561,-5.51c-7.187,4.149,-9.659,13.373,-5.509,20.561s13.373,9.66,20.561,5.51C170.792,110.394,173.263,101.171,169.113,93.98309326171875Z"></path><path d="M138.758,111.508544921875C149.785,111.508,158.758,120.481,158.758,131.5078582763672S149.785,151.508,138.758,151.50852966308594s-20,-8.973,-20,-20.001S127.732,111.508,138.758,111.508544921875ZM138.758,146.5594940185547c8.3,0,15.052,-6.752,15.052,-15.052c0,-8.299,-6.752,-15.051,-15.052,-15.051s-15.051,6.752,-15.052,15.051C123.705,139.808,130.458,146.559,138.758,146.5594940185547Z"></path></g></g></symbol></defs><rect width="100%" height="100%" id="BgenPttrnRctLayer1" fill="url(#BgenPttrnLayer1)"></rect><rect width="100%" height="100%" id="BgenPttrnRctLayer2" fill="url(#BgenPttrnLayer2)"></rect></svg>